<?xml version="1.0" encoding="UTF-8" standalone="no"?>
<svg width="512" height="512" viewBox="0 0 512 512" fill="none" xmlns="http://www.w3.org/2000/svg">
  <!-- Background Elements -->
  <rect width="512" height="512" rx="80" fill="#111827" />
  <circle cx="256" cy="256" r="200" fill="#111827" />
  <circle cx="256" cy="256" r="190" fill="#111827" stroke="#0EA5E9" stroke-width="2.5" opacity="0.7" />

  <!-- Grid background pattern -->
  <path d="M96 96H416M96 176H416M96 256H416M96 336H416M96 416H416M96 96V416M176 96V416M256 96V416M336 96V416M416 96V416" stroke="#0EA5E9" stroke-width="1.2" stroke-opacity="0.25" />

  <!-- Glowing effect -->
  <circle cx="256" cy="256" r="125" fill="url(#gradient1)" opacity="0.2" />

  <!-- H letter - increased thickness -->
  <path d="M175 160V352M175 256H337M337 160V352" stroke="#0EA5E9" stroke-width="22" stroke-linecap="round" stroke-linejoin="round" />

  <!-- Light glow around H letter -->
  <path d="M175 160V352M175 256H337M337 160V352" stroke="#0EA5E9" stroke-width="26" stroke-linecap="round" stroke-linejoin="round" stroke-opacity="0.3" />

  <!-- Circular shield element -->
  <circle cx="256" cy="256" r="160" stroke="#0EA5E9" stroke-width="4" stroke-dasharray="4 10" opacity="0.8" />

  <!-- Additional circular element to match screenshot -->
  <circle cx="256" cy="256" r="180" stroke="#0EA5E9" stroke-width="1.5" opacity="0.5" />

  <!-- Tick marks on circular elements -->
  <path d="M256 76v-10M256 446v-10M76 256h-10M446 256h-10" stroke="#0EA5E9" stroke-width="4" opacity="0.7" />
  <path d="M136 136l-7 -7M376 136l7 -7M136 376l-7 7M376 376l7 7" stroke="#0EA5E9" stroke-width="3" opacity="0.6" />

  <!-- Cybersecurity elements -->
  <path d="M125 125L145 145M387 125L367 145M125 387L145 367M387 387L367 367" stroke="#0EA5E9" stroke-width="3" stroke-linecap="round" opacity="0.8" />

  <!-- Gradients -->
  <defs>
    <linearGradient id="gradient1" x1="156" y1="156" x2="356" y2="356" gradientUnits="userSpaceOnUse">
      <stop stop-color="#0EA5E9" />
      <stop offset="1" stop-color="#0369A1" stop-opacity="0.6" />
    </linearGradient>
  </defs>
</svg>
