<svg fill="#000000" height="800px" width="800px" version="1.1" id="Capa_1" xmlns="http://www.w3.org/2000/svg" xmlns:xlink="http://www.w3.org/1999/xlink"
	 viewBox="0 0 254.809 254.809" xml:space="preserve">
<g>
	<g>
		<path d="M231.767,156.697l-14.616-3.567c-13.105-3.198-24.741-18.747-29.353-31.425c-12.706-34.93,5.111-71.203,11.865-83.022
			c0.605-1.059,0.757-2.318,0.421-3.491c-0.336-1.173-1.131-2.162-2.206-2.74l-59.37-31.913c-1.286-0.691-2.827-0.719-4.138-0.075
			c-1.311,0.645-2.23,1.882-2.468,3.323c-3.147,19.041-16.47,41.674-25.54,54.025l29.458,15.697
			c4.61,2.478,8.082,6.784,9.525,11.813c1.444,5.032,0.783,10.526-1.815,15.073c-3.869,6.77-13.761,26.143-14.302,47.619
			l0.949,0.598c10.447,6.584,18.385,16.481,22.543,28.108c3.32,9.283,10.309,16.793,19.33,20.77
			c9.021,3.977,18.844,2.792,28.372,0.259c9.093-2.417,33.969-7.821,33.969-7.821c5.57-1.225,8.9-6.436,10.263-12.023
			C246.952,168.489,241.182,158.994,231.767,156.697z"/>
	</g>
	<path d="M162.61,210.966l-14.616-3.567c-13.106-3.198-24.741-18.747-29.353-31.424c-12.707-34.932,5.113-71.207,11.866-83.024
		c0.606-1.06,0.757-2.319,0.421-3.492c-0.337-1.173-1.133-2.16-2.208-2.738L69.351,54.809c-0.668-0.359-1.404-0.539-2.142-0.539
		c-0.683,0-1.366,0.154-1.996,0.464c-1.311,0.645-2.23,1.882-2.468,3.323c-3.382,20.467-12.767,36.782-21.743,48.317
		C55.2,117.649,64.33,135.043,64.33,154.54c0,15.594-5.844,29.841-15.444,40.693l12.134,7.646
		c10.447,6.584,18.385,16.481,22.543,28.108c3.32,9.283,10.309,16.793,19.33,20.77c4.612,2.033,9.549,3.051,14.487,3.051
		c8.988,0,18.914-2.108,47.854-10.613c6.498-1.995,8.9-6.436,10.263-12.023C177.795,222.758,172.025,213.264,162.61,210.966z"/>
	<path d="M31.079,117.639c-3.103,3.113-5.737,5.413-7.469,6.841c-0.76,0.556-1.509,1.137-2.235,1.764
		c-8.116,7.004-12.431,17.441-11.629,28.131c0.801,10.69,6.624,20.367,15.694,26.083l10.545,6.645
		c8.247-8.395,13.346-19.892,13.346-32.563C49.33,139.518,42.165,126.146,31.079,117.639z"/>
</g>
</svg>